<?xml version="1.0" encoding="utf-8"?>
<!-- Uploaded to: SVG Repo, www.svgrepo.com, Generator: SVG Repo Mixer Tools -->
<svg width="800px" height="800px" viewBox="-57.47 0 360.071 360.071" xmlns="http://www.w3.org/2000/svg"><defs><style>.a{fill:#ffffff;}.b{fill:#7a7473;}.c{fill:#211715;}.d{fill:#5394cf;}</style></defs><path class="a" d="M169.237,175.692c-.95-.416-14.751-8.376-17.305-14.7-1.189-2.944-1.38-6.658-1.394-10.224,11.3-6.92,19.992-21.441,21.653-25.878a47.061,47.061,0,0,0,2.049-7.4c3.508,1.778,5.633.972,7.747-.715a20,20,0,0,0,5.175-6.791,31.485,31.485,0,0,0,3.21-16.688,10.511,10.511,0,0,0-1.1-4.226,7.43,7.43,0,0,0-5.343-3.552,7.871,7.871,0,0,0-6.3,1.842l.138-.187c-1,.68-1.43.529-1.47.1-.058-.627-.129-1.267-.227-1.891a50.7,50.7,0,0,0-1.227-5.513,65.085,65.085,0,0,0-6.564-14.524,27.466,27.466,0,0,0-18.205-13.4,51.252,51.252,0,0,0-8.635-.385c-2.576.022-5.225.147-8.066,0-5.617-2.665-14.507-2.057-20.3.253-4.169,1.661-7.914,4.579-12.435,4.92-4.07.306-8.649-1.461-11.985.728a9.9,9.9,0,0,0-2.72,3.084,78.838,78.838,0,0,0-4.251,7.452q-.953,1.906-1.805,3.871c-.535,1.237-1.409,3.011-2.015,4.222-1.1,2.2-2.6,5.464-3.63,7.7-.644,1.4-1.595,5-3.3,3.245l.093.324a7.871,7.871,0,0,0-6.3-1.842,7.43,7.43,0,0,0-5.343,3.552,10.511,10.511,0,0,0-1.1,4.226,31.5,31.5,0,0,0,3.21,16.689,20.029,20.029,0,0,0,5.175,6.791c1.9,1.517,4.329,3.195,7.583,1.9A53.31,53.31,0,0,0,85,140.34a44.521,44.521,0,0,0,14.169,11.5c-.007,3.561-.189,7.295-1.392,10.263-2.564,6.326-14.2,13.177-15.147,13.593,0,0,11.5,11.512,41.86,11.512S169.237,175.692,169.237,175.692Z"/><path class="b" d="M70.932,87.032c1.7,1.755,2.656-1.84,3.3-3.245,1.027-2.236,2.53-5.5,3.63-7.7.606-1.211,1.48-2.985,2.015-4.222q.852-1.963,1.805-3.871a78.838,78.838,0,0,1,4.251-7.452,9.9,9.9,0,0,1,2.72-3.084c3.336-2.189,7.915-.422,11.985-.728,4.521-.341,8.266-3.259,12.435-4.92,5.8-2.31,14.686-2.918,20.3-.253,2.841.147,5.49.022,8.066,0a51.252,51.252,0,0,1,8.635.385,27.466,27.466,0,0,1,18.205,13.4,65.085,65.085,0,0,1,6.564,14.524,50.7,50.7,0,0,1,1.227,5.513c.1.624.169,1.264.227,1.891.04.426.466.577,1.47-.1l-.138.187a7.87,7.87,0,0,1,6.257-1.848c3.933-12.921,2.87-29.3-.953-39.071-2.63-6.719-6.659-14.474-14.821-18.954l-7.492-6.629c-3.364-6.831-10.392-12.68-19.632-15.98-9.683-3.458-37.911-4.045-47.4,4.16L83.848,15.7c-10.867,4.96-18.534,16.831-21.8,29.065-3.365,12.606-3.395,30.878,1.342,41.1a7.786,7.786,0,0,1,7.634,1.5Z"/><path class="c" d="M162.7,19.643c-4.98-9.937-15.9-16.626-26.66-18.444a85.588,85.588,0,0,0-30.224.3c-4.935.959-10.026,2.533-13.918,5.84a2.421,2.421,0,0,0,0,3.394,2.45,2.45,0,0,0,3.394,0c.037-.031.585-.476.186-.167.176-.136.358-.264.54-.39.379-.261.77-.5,1.168-.735a24.2,24.2,0,0,1,2.324-1.156,38.085,38.085,0,0,1,6.122-1.853A71.026,71.026,0,0,1,119.619,4.9c8.83-.192,17.527.249,25.5,4.359,5.608,2.891,10.572,7.1,13.431,12.808,1.385,2.762,5.527.334,4.145-2.422Z"/><path class="c" d="M148.411,152.328c.074,4.05.3,8.588,2.552,12.1a28.391,28.391,0,0,0,6.078,6.416,78.019,78.019,0,0,0,7.327,5.295,33.987,33.987,0,0,0,4.112,2.44,2.471,2.471,0,0,0,3.283-.861,2.42,2.42,0,0,0-.861-3.284,31.681,31.681,0,0,1-3.711-2.185,70.746,70.746,0,0,1-6.292-4.423,42.879,42.879,0,0,1-3.306-2.91,20.687,20.687,0,0,1-2.219-2.514,11.251,11.251,0,0,1-.923-1.572c.262.55-.188-.519-.2-.563-.176-.521-.319-1.051-.442-1.586a30.913,30.913,0,0,1-.595-6.355c-.056-3.085-4.857-3.095-4.8,0Z"/><path class="c" d="M83.422,178.581a28.667,28.667,0,0,0,3.958-2.421,58.591,58.591,0,0,0,6.771-5.238,21.9,21.9,0,0,0,5.234-6.48c1.767-3.729,1.917-8.028,1.936-12.084.015-3.089-4.785-3.092-4.8,0a44.226,44.226,0,0,1-.29,5.754,15.246,15.246,0,0,1-1.217,4.36,20.156,20.156,0,0,1-4.721,5.471,51.722,51.722,0,0,1-5.752,4.351A26.974,26.974,0,0,1,81,174.436a2.419,2.419,0,0,0-.861,3.284,2.457,2.457,0,0,0,3.283.861Z"/><path class="c" d="M172.116,114.707a25.333,25.333,0,0,1-1.207,6.394c-.235.786-.493,1.566-.758,2.342-.091.269-.18.539-.275.807-.035.1-.279.685-.116.3.172-.405-.113.243-.148.32q-.139.3-.285.6c-.252.515-.518,1.025-.791,1.529-.615,1.136-1.273,2.249-1.958,3.343a63.868,63.868,0,0,1-13.372,15.6,28.366,28.366,0,0,1-10.03,5.518c-2.965.848-1.7,5.48,1.276,4.629,7.586-2.167,13.9-7.624,18.981-13.475a65.2,65.2,0,0,0,10.42-15.53,33.756,33.756,0,0,0,3.063-12.377c.1-3.089-4.7-3.085-4.8,0Z"/><path class="c" d="M70.955,114.78c2.833,15.175,10.936,29.75,24.516,37.788a33.009,33.009,0,0,0,11.779,4.308A2.477,2.477,0,0,0,110.2,155.2a2.418,2.418,0,0,0-1.676-2.952c-14.467-2.2-25.539-15.3-30.224-28.471A67.69,67.69,0,0,1,75.584,113.5a2.421,2.421,0,0,0-2.952-1.676,2.453,2.453,0,0,0-1.677,2.952Z"/><path class="c" d="M179.329,89.053a5.353,5.353,0,0,1,7.689.92c.959,1.446,1.006,3.4,1.055,5.074a27.907,27.907,0,0,1-.388,5.708,28.776,28.776,0,0,1-3.989,10.489c-1.516,2.364-3.985,5.49-7.12,4.628-2.982-.821-4.255,3.809-1.276,4.628,8.137,2.239,13.494-7.184,15.728-13.564a33.4,33.4,0,0,0,1.845-11.889c-.115-4.084-1-8.014-4.6-10.4a10.341,10.341,0,0,0-12.336,1.011,2.421,2.421,0,0,0,0,3.394,2.45,2.45,0,0,0,3.394,0Z"/><path class="c" d="M72.722,85.659A10.389,10.389,0,0,0,61.53,84.024c-3.941,1.811-5.382,5.626-5.679,9.706-.577,7.9,1.811,16.669,7.047,22.721,2.811,3.25,6.8,5.819,11.228,4.79,3.008-.7,1.735-5.329-1.276-4.629-2.975.692-5.918-2.506-7.435-4.688a28.756,28.756,0,0,1-4.84-16.438c.025-1.761.044-3.806.973-5.361,1.572-2.629,5.522-2.994,7.78-1.072a2.463,2.463,0,0,0,3.394,0,2.421,2.421,0,0,0,0-3.394Z"/><path class="c" d="M82.636,13.625C72.991,18.1,66.26,27.212,62.242,36.808c-4.071,9.725-5.366,20.647-4.9,31.128a54.993,54.993,0,0,0,2.977,16.746,2.466,2.466,0,0,0,2.952,1.677,2.42,2.42,0,0,0,1.676-2.953c-3.393-9.1-3.425-19.527-2.289-29.059,1.132-9.494,4.315-18.872,10.168-26.521A33.109,33.109,0,0,1,85.059,17.769a2.419,2.419,0,0,0,.861-3.283,2.455,2.455,0,0,0-3.284-.861Z"/><path class="c" d="M166.9,29.556c6.608,3.693,10.724,10.042,13.482,16.924,2.913,7.27,3.777,15.3,3.553,23.077A60.017,60.017,0,0,1,181.831,84c-.833,2.98,3.8,4.251,4.628,1.276a69.568,69.568,0,0,0,1.589-28.041A51.373,51.373,0,0,0,180.081,35.5a31.763,31.763,0,0,0-10.754-10.09c-2.7-1.509-5.123,2.636-2.423,4.145Z"/><path class="c" d="M132.591,50.308a26.234,26.234,0,0,0-16.974-1.8,34.211,34.211,0,0,0-7.828,3.173c-2.241,1.153-4.592,2.433-7.151,2.654-2.621.226-5.228-.44-7.848-.381a9.586,9.586,0,0,0-7.358,3.213c-3.937,4.625-6.168,10.59-8.8,15.98-1.191,2.436-2.116,4.992-3.344,7.408-.561,1.1-1.226,2.137-1.715,3.277-.206.481-.41.96-.662,1.419.019-.033-.254.391-.25.4-.321-.675,1.966-.314,1.97-.31-2.266-2.093-5.669,1.293-3.394,3.394,2.016,1.863,4.5,1.227,5.819-1.06.425-.735.679-1.554,1.058-2.312.595-1.193,1.31-2.314,1.872-3.527,2.315-4.991,4.358-10.114,6.987-14.958q1.08-1.989,2.273-3.914A11.913,11.913,0,0,1,89.775,59.6c1.889-1.445,4.862-.8,7.028-.6a18.616,18.616,0,0,0,8.213-.8c2.706-.975,5.171-2.454,7.769-3.665a20.963,20.963,0,0,1,17.384-.082,2.47,2.47,0,0,0,3.283-.861,2.42,2.42,0,0,0-.861-3.284Z"/><path class="c" d="M111.365,38.772a25.293,25.293,0,0,1,18.3,2.923,21,21,0,0,1,5.869,4.844,35.037,35.037,0,0,1,4.041,6.639c1.4,2.755,5.542.328,4.145-2.423-2.838-5.589-6.386-10.314-11.97-13.393a30.352,30.352,0,0,0-21.667-3.219c-3.011.685-1.736,5.313,1.277,4.629Z"/><path class="c" d="M150.1,53.433A23.749,23.749,0,0,1,164,63.179a56.483,56.483,0,0,1,8.771,18.235c.277,1.063.53,2.133.74,3.212s.215,2.227.472,3.284c.6,2.448,3.237,2.424,5,1.331,2.618-1.628.211-5.782-2.422-4.145q-1.156.57,1.058.363l.861.861q.286.957.124.005-.069-.557-.146-1.111c-.088-.625-.194-1.246-.314-1.864-.239-1.233-.534-2.454-.859-3.667a45.167,45.167,0,0,0-1.992-5.727,71.616,71.616,0,0,0-6.016-11.548c-4.293-6.58-10.11-11.754-17.9-13.6-3-.713-4.285,3.914-1.276,4.628Z"/><path class="a" d="M201.175,357.75c-.01-11.29-.6-18.64-.6-28.59,0-3.173-.023-6.235-.014-9.245,0,0,0-.492,0-1.318,4.992,2.733,10.768,4.991,15.244,5.27,8.041.5,16.38-3,20.438-9.381s5.329-13.578,6.031-21.109c2.239-24-4.4-46.556-7.77-60.513a223.9,223.9,0,0,0-6.833-23.522c-1.568-3.809-3.472-7.677-5.937-10.1a34.744,34.744,0,0,0-9.633-7.112c-11.019-5.227-39.642-16.858-51.558-21.736-2.805-5.3-3.921-8.125-7.96-11.838-3.861,5.19-12.675,11.671-23.24,15.921a5.984,5.984,0,0,0-2.054,1.162c-.253.471.239.885.47,1.255a7.6,7.6,0,0,0,.912,1c-2.726.006-4.8.013-7.419.018a7.758,7.758,0,0,0,.929-1.018c.232-.37.724-.784.471-1.255a5.984,5.984,0,0,0-2.054-1.162c-10.565-4.25-19.38-10.731-23.24-15.921-4.036,3.71-5.154,6.529-7.952,11.823C77.482,175,49.264,186.782,38.2,191.73c-3.462,1.558-7.443,3.527-10.1,6.217a28.655,28.655,0,0,0-6.29,9.612c-1.139,2.737-2.153,5.314-3.075,7.775a305.543,305.543,0,0,0-8.5,30.56c-1.824,8.133-2.79,11.5-5.739,27.318-2.056,11.029-2.978,25.985-.956,37.022s9.647,18.44,20.325,22.135c6.948,2.4,15.356.068,24.051-4.039.035,10.377-.587,17.818-.6,29.42Z"/><path class="d" d="M139.952,337.5c1.618-1.733,3.115-3.4,4.357-4.845,1.5-1.75,2.6-2.588,2.729-4.018a35.1,35.1,0,0,0-.433-5.612c-3.231-34.982-7.405-85.674-13.129-126.335a19.672,19.672,0,0,1,1.24-5.535c.639-1.962,1.067-3.713,1.482-5.412-1.1-1.141-2.2-2.291-3.249-3.439-1.965-2.156-3.406-3.542-4.277-4.406-2.724,0-4.792.012-7.414.018-.873.865-2.307,2.247-4.258,4.388-.681.747-1.384,1.5-2.1,2.242.542,2.8.943,4.656,1.556,7.282a34.746,34.746,0,0,1,.863,4.607v.525c-3.756,41.182-9.761,94.575-13.383,129.621a7.9,7.9,0,0,0,.308,3.993,11.061,11.061,0,0,0,2.323,2.829c4.628,4.955,10.22,10.141,15.558,15.2a6.006,6.006,0,0,0,3.144,1.648c1.228.092,2.557-.955,3.445-1.721C132.062,345.642,136.313,341.4,139.952,337.5Z"/><path class="c" d="M133.575,186.36c-.788,3.128-2.077,6.172-2.431,9.392a18.208,18.208,0,0,0,.407,4.373q.29,2.112.57,4.224,1.147,8.668,2.163,17.353c1.41,11.971,2.674,23.958,3.865,35.953q1.749,17.631,3.328,35.279c.95,10.456,1.665,20.963,2.865,31.394a33.092,33.092,0,0,1,.326,3.412c.011,1-.366,1.336-1.151,2.2-1.66,1.835-3.269,3.715-4.954,5.529A139.457,139.457,0,0,1,127.02,346.83a8.4,8.4,0,0,1-1.273.9c-.12.069-.691.18-.3.155s-.191-.056-.32-.118a14.584,14.584,0,0,1-3.4-2.847c-2.393-2.26-4.787-4.518-7.146-6.814-2.249-2.188-4.42-4.444-6.6-6.7-.929-.961-1.7-1.612-1.748-3.021a30.791,30.791,0,0,1,.346-4.107c2.257-21.707,4.632-43.4,6.921-65.1q1.872-17.74,3.659-35.492.846-8.475,1.654-16.954.391-4.116.77-8.233a19.458,19.458,0,0,0-.587-6.347c-.565-2.471-1.126-4.941-1.618-7.428A2.4,2.4,0,0,0,112.747,186c.519,2.62,1.125,5.218,1.708,7.823.111.5.219.993.314,1.492.037.195.075.392.106.588.136.859.006-.351.041.351a27.416,27.416,0,0,1-.277,3.792q-.778,8.406-1.606,16.807-1.773,18.072-3.683,36.13c-2.374,22.644-4.851,45.276-7.22,67.92a61.406,61.406,0,0,0-.7,7.485,7.616,7.616,0,0,0,1.369,4.42,37.248,37.248,0,0,0,3.3,3.594c2.323,2.424,4.726,4.771,7.15,7.094,2.449,2.347,4.85,4.809,7.422,7.021,2.425,2.087,5.344,2.845,8.137.964a45.4,45.4,0,0,0,5.861-5.167c3.955-3.814,7.726-7.817,11.335-11.958a24.359,24.359,0,0,0,2.623-3.129,6.659,6.659,0,0,0,.831-3.787c-.092-2.506-.512-5.028-.741-7.527q-.727-7.943-1.44-15.887-1.575-17.468-3.217-34.928-1.763-18.447-3.775-36.87-1.008-9.075-2.121-18.139-.552-4.461-1.137-8.919-.284-2.151-.575-4.3a31.07,31.07,0,0,1-.608-4.415,15.381,15.381,0,0,1,1.036-4.2c.49-1.524.93-3.055,1.322-4.609.754-3-3.874-4.274-4.629-1.276Z"/><path class="c" d="M203.575,357.75c-.01-6.25-.241-12.492-.431-18.739-.193-6.363-.2-12.73-.183-19.1.008-3.089-4.792-3.093-4.8,0-.016,6.366-.009,12.733.183,19.1.189,6.247.421,12.489.431,18.739,0,3.088,4.805,3.094,4.8,0Z"/><path class="c" d="M45.518,328.312c0,9.818-.583,19.623-.6,29.44-.005,3.089,4.8,3.094,4.8,0,.017-9.817.6-19.622.6-29.44,0-3.088-4.8-3.093-4.8,0Z"/><path class="a" d="M143.282,193.305a103.473,103.473,0,0,0,16-25.333c-1.985-3.828-3.319-6.308-6.7-9.412-3.861,5.19-12.675,11.671-23.24,15.921a5.984,5.984,0,0,0-2.054,1.162c-.253.471.239.885.47,1.255.364.581,2.149,2.074,5.186,5.407C136.394,186.087,140.43,189.9,143.282,193.305Z"/><path class="a" d="M106.667,193.305a103.443,103.443,0,0,1-16-25.333c1.985-3.828,3.319-6.308,6.695-9.412,3.86,5.19,12.675,11.671,23.24,15.921a5.984,5.984,0,0,1,2.054,1.162c.253.471-.239.885-.471,1.255-.363.581-2.148,2.074-5.185,5.407C113.555,186.087,109.519,189.9,106.667,193.305Z"/><path class="c" d="M117.8,198.69c4.969,0,9.938-.11,14.907-.112a2.4,2.4,0,1,0,0-4.8c-4.969,0-9.938.11-14.907.112a2.4,2.4,0,0,0,0,4.8Z"/><path class="c" d="M128.716,175.5q-3.764.009-7.527.019a2.4,2.4,0,1,0,0,4.8q3.763-.007,7.527-.019a2.4,2.4,0,0,0,0-4.8Z"/><path class="c" d="M144.979,195a109.671,109.671,0,0,0,12.858-18.7q1.314-2.456,2.511-4.971a17.441,17.441,0,0,0,1.248-2.718c.327-1.191-.451-2.264-.983-3.268a31.509,31.509,0,0,0-6.329-8.479,2.446,2.446,0,0,0-3.769.486c-4.025,5.337-10.919,9.605-17.06,12.667-2,1-4.088,1.762-6.091,2.731-2.092,1.012-3.314,2.981-1.835,5.135,1.559,2.27,3.865,4.1,5.723,6.12,3.4,3.7,7.087,7.155,10.333,11a2.42,2.42,0,0,0,3.394,0,2.45,2.45,0,0,0,0-3.394c-3.052-3.615-6.506-6.865-9.72-10.332-1.381-1.491-2.765-2.972-4.209-4.4-.389-.386-.772-.778-1.162-1.164-.155-.153-.5-.66-.008.043-.059-.084-.38-.633-.343-.471v1.276l.07-.276-.617,1.059c-.244.286.25-.171.433-.268s.372-.191.562-.276c.808-.365,1.642-.677,2.455-1.031q2.142-.933,4.221-2a69.8,69.8,0,0,0,7.383-4.372,43.986,43.986,0,0,0,10.615-9.621l-3.769.486a31.163,31.163,0,0,1,6.32,8.926v-2.422a109.944,109.944,0,0,1-15.625,24.847,2.465,2.465,0,0,0,0,3.394A2.419,2.419,0,0,0,144.979,195Z"/><path class="c" d="M108.364,191.608a109.908,109.908,0,0,1-15.625-24.847v2.422a31.176,31.176,0,0,1,6.32-8.926l-3.77-.486a44.009,44.009,0,0,0,10.616,9.621,70.058,70.058,0,0,0,7.382,4.372q1.978,1.017,4.015,1.911c.812.356,1.638.681,2.451,1.035.264.115.518.227.773.362.163.087.722.606.433.268l-.617-1.059.07.276v-1.276c.037-.162-.284.387-.343.471.495-.7.147-.2-.008-.043-.39.386-.773.778-1.163,1.164-1.443,1.431-2.827,2.912-4.209,4.4-3.213,3.467-6.667,6.717-9.719,10.332a2.464,2.464,0,0,0,0,3.394,2.42,2.42,0,0,0,3.394,0c2.855-3.382,6.065-6.443,9.1-9.664,1.405-1.494,2.777-3.016,4.227-4.468.7-.7,1.459-1.373,2.1-2.136,1.372-1.643,1.984-3.83-.03-5.3-1.651-1.2-3.817-1.783-5.662-2.647a69.695,69.695,0,0,1-10.889-6.325,37.519,37.519,0,0,1-7.768-7.115,2.446,2.446,0,0,0-3.769-.486,31.529,31.529,0,0,0-6.329,8.479c-.486.916-1.172,1.87-1.026,2.949a10.624,10.624,0,0,0,1.2,2.845q1.243,2.61,2.6,5.163A109.671,109.671,0,0,0,104.97,195a2.418,2.418,0,0,0,3.394,0A2.451,2.451,0,0,0,108.364,191.608Z"/><path class="c" d="M39.8,280.3a41.361,41.361,0,0,0,15.166-5.619,2.4,2.4,0,1,0-2.423-4.144,36.975,36.975,0,0,1-14.019,5.134,2.409,2.409,0,0,0-1.676,2.953A2.472,2.472,0,0,0,39.8,280.3Z"/><path class="c" d="M37.614,244.862q2.333,15.926,4.944,31.808a2.419,2.419,0,0,0,2.953,1.676,2.457,2.457,0,0,0,1.676-2.952q-2.614-15.882-4.945-31.808a2.416,2.416,0,0,0-2.952-1.677,2.463,2.463,0,0,0-1.676,2.953Z"/><path class="c" d="M89.412,167.823c-15.258,5.864-30.332,12.268-45.341,18.737-3.23,1.393-6.495,2.747-9.651,4.3a29.048,29.048,0,0,0-12.337,10.856,49.734,49.734,0,0,0-3.6,7.668c-1.111,2.755-2.151,5.522-3.066,8.348q-2.812,8.689-5.1,17.536c-1.966,7.615-3.709,15.316-5.338,23.012C2.874,268.267.868,278.306.242,288.511a103.492,103.492,0,0,0,.2,16.776,38.143,38.143,0,0,0,3.66,13.975,29.979,29.979,0,0,0,8.845,10.151,32.307,32.307,0,0,0,12.614,5.895c5.037.967,10.207.117,15.034-1.449a92.412,92.412,0,0,0,16.472-7.594c4.95-2.772,9.841-5.685,14.608-8.763a88.525,88.525,0,0,0,13.147-9.99,40.72,40.72,0,0,0,4.953-5.662,2.419,2.419,0,0,0-.861-3.284,2.454,2.454,0,0,0-3.284.861,46.653,46.653,0,0,1-10.485,9.9c-4.2,3.08-8.647,5.821-13.118,8.5a176.07,176.07,0,0,1-15.618,8.574c-4.534,2.124-9.475,4.062-14.51,4.466a22.013,22.013,0,0,1-12.364-2.96,27.121,27.121,0,0,1-9.211-7.7c-5.6-7.63-5.7-17.9-5.487-26.982.247-10.294,2.052-20.305,4.093-30.369,1.33-6.562,2.836-13.1,4.369-19.613a224.536,224.536,0,0,1,10.171-33.462c1.854-4.547,4.356-9.059,8.471-11.942a62.186,62.186,0,0,1,11.028-5.6q21.708-9.478,43.742-18.227,1.983-.786,3.973-1.554a2.469,2.469,0,0,0,1.676-2.952,2.418,2.418,0,0,0-2.952-1.676Z"/><path class="a" d="M120.56,271.355q.42-.066.8-.129c4.451-.749,7.04-3.256,6.883-6.007-.313-5.479-6.712-4.216-6.363-4.766a9.824,9.824,0,0,0,6.1-1.665,4.76,4.76,0,0,0,1.9-4.13,4.232,4.232,0,0,0-2.683-4.06,17.658,17.658,0,0,0-5.452-.77,63.344,63.344,0,0,0-7.183.279c2.468-1.66,4.558-3.6,5.07-5.311.613-2.047-.72-3.793-2.539-4.648a12.6,12.6,0,0,0-6.088-.96,193.023,193.023,0,0,0-19.2,2.219A14.461,14.461,0,0,0,85.9,243.56c-2.123,1.547-3.349,4.017-4.349,6.406-2.876,6.865-5.117,13.236-11.658,16.929-6.839,3.221-7.108,7.429-5.8,12.117a31.15,31.15,0,0,0,3.707,7.026c3.43,4.615,7.169,9,12.635,11.012,1.387.51,4.761,1.862,6.468,1.034,2.109-1.024,7.144-7.313,7.87-11.148,0,0,.066-.351.173-.932,1.431-.129,2.925-.186,4.109-.284a100.233,100.233,0,0,1,13.513-.53c2.451.13,5.446-.03,6.591-2.2.919-1.746.828-3.62-.7-4.863a4.881,4.881,0,0,0-1.247-.648c-.694-.282-1.407-.516-2.122-.74-1.671-.522-3.365-.972-5.059-1.416-1.22-.32-3.856-.778-5.082-1.075-.639-.154-.179-.846.253-.777C110.78,272.646,116.886,271.93,120.56,271.355Z"/><path class="c" d="M71.1,268.967a23.734,23.734,0,0,0,9.106-10.026c1.061-2.067,1.946-4.221,2.836-6.366a22.737,22.737,0,0,1,2.991-5.852c1.62-1.976,4.008-2.536,6.41-3,1.842-.357,3.7-.627,5.562-.864,4.225-.538,8.473-.981,12.724-1.251,1.845-.117,5.133-.248,6.381,1.491,1.2,1.676-2.366,3.964-3.5,4.759a2.465,2.465,0,0,0-.861,3.284,2.422,2.422,0,0,0,3.284.861c2.316-1.623,5.1-3.7,5.911-6.566a6.314,6.314,0,0,0-3.023-7.022c-4.353-2.757-10.435-1.488-15.251-1-4.949.5-10.168.86-14.967,2.244a12.585,12.585,0,0,0-7.038,4.926c-1.622,2.293-2.539,5.029-3.619,7.6-2.091,4.98-4.53,9.842-9.368,12.639-2.673,1.546-.259,5.7,2.423,4.145Z"/><path class="c" d="M97.705,242.135c2.015-.909,3.966-1.953,5.974-2.878q.359-.165.719-.326c.076-.033.9-.383.47-.205.56-.231,1.125-.451,1.7-.653a23.276,23.276,0,0,1,3.469-.942,2.413,2.413,0,0,0,1.676-2.953,2.463,2.463,0,0,0-2.952-1.676c-4.823.9-9.061,3.5-13.475,5.489a2.408,2.408,0,0,0-.861,3.283,2.468,2.468,0,0,0,3.283.861Z"/><path class="c" d="M95.806,255.237a143.989,143.989,0,0,1,21.737-2.94,50.757,50.757,0,0,1,5.475-.016c1.455.079,3.822.034,4.346,1.7,1.521,4.821-7.436,4.28-9.943,4.45a132.57,132.57,0,0,0-18.57,2.281c-3.021.638-1.743,5.266,1.276,4.628A130.656,130.656,0,0,1,118.6,263.15c2.973-.2,6.084-.13,8.862-1.337a7.539,7.539,0,0,0,4.793-6.4,6.952,6.952,0,0,0-3.1-6.517c-2.3-1.384-5.325-1.429-7.927-1.477a89.967,89.967,0,0,0-13.061.988c-4.563.587-9.128,1.263-13.632,2.206-3.022.633-1.743,5.26,1.276,4.628Z"/><path class="c" d="M122.635,263.056c.22.017.439.036.658.059.35.035-.317-.1.344.06a9.149,9.149,0,0,1,1.117.329c.045.022.626.348.3.142a.892.892,0,0,1,.441.45,2.777,2.777,0,0,1,.353,1.38,1.554,1.554,0,0,1-.31.993,4.2,4.2,0,0,1-1.216,1.18,10.75,10.75,0,0,1-4.327,1.38c-6.937,1.1-13.936,1.753-20.849,3.006a2.421,2.421,0,0,0-1.676,2.952,2.452,2.452,0,0,0,2.952,1.676c6.555-1.188,13.185-1.871,19.772-2.842,3.026-.445,6.138-1.17,8.347-3.457a7.19,7.19,0,0,0,1.165-8.575c-1.5-2.572-4.307-3.311-7.07-3.533a2.419,2.419,0,0,0-2.4,2.4,2.448,2.448,0,0,0,2.4,2.4Z"/><path class="c" d="M102.722,272.4a2.708,2.708,0,0,0,.3,3.429,4.944,4.944,0,0,0,2.666,1.028c1.711.347,3.4.693,5.091,1.144,1.231.33,2.459.669,3.674,1.051a6.682,6.682,0,0,1,2.6,1.027c.7.7.105,1.967-.574,2.323-1.4.736-3.358.4-4.867.346a76.671,76.671,0,0,0-7.729.195c-2.195.148-4.385.36-6.581.5a29.953,29.953,0,0,0-6.133.769c-2.974.819-1.711,5.451,1.276,4.628a21.81,21.81,0,0,1,4.477-.574c1.84-.114,3.675-.274,5.513-.414,2.09-.158,4.184-.288,6.281-.321,1.837-.028,3.676.147,5.511.09,3.4-.107,6.515-1.415,7.624-4.87a5.978,5.978,0,0,0-.672-5.16c-1.152-1.671-2.948-2.346-4.805-2.957-2.028-.669-4.105-1.255-6.186-1.74-.737-.173-1.482-.315-2.224-.462-.437-.087-.874-.172-1.31-.263-.16-.033-.961-.223-.721-.1l.861.861-.083-.168.242,1.85-.081.22a2.417,2.417,0,0,0-.861-3.284,2.458,2.458,0,0,0-3.284.861Z"/><path class="c" d="M92.461,286.3c-.648,3.095-3.011,6.212-5.283,8.5-.238.24-.486.467-.734.7-.107.1-.226.2-.342.29.362-.281.076-.08.011-.022a2.128,2.128,0,0,1-.286.176c.349-.224.107-.01-.064,0,.009,0-.7-.016-.9-.046a17.719,17.719,0,0,1-5.228-1.8c-3.956-2.024-6.881-5.457-9.519-8.946-.2-.269-.414-.535-.615-.807.265.359.024.025-.022-.043-.235-.343-.457-.694-.672-1.052-.5-.83-.955-1.686-1.387-2.553a12.688,12.688,0,0,1-1.4-3.985,6.632,6.632,0,0,1,.312-3.82c.934-1.875,2.874-3,4.775-3.921a2.423,2.423,0,0,0,.861-3.284,2.451,2.451,0,0,0-3.284-.861c-4.289,2.073-7.77,5.592-7.6,10.639.134,3.953,1.932,7.813,4.11,11.05,2.885,4.286,6.611,8.628,11.156,11.257a25.025,25.025,0,0,0,6.568,2.615c2.362.565,4.487.471,6.418-1.072a24.561,24.561,0,0,0,4.587-5.213,18.476,18.476,0,0,0,3.171-6.524c.631-3.014-4-4.3-4.629-1.276Z"/><path class="a" d="M175.415,241.932c-1.5-3.414-3.225-7.343-4.173-8.529-3.671-5.007-3.734-12.446-5.9-18.588-2.89-8.2-9.558-12.868-16.1-17.344A147.379,147.379,0,0,0,136.1,189.3a6.442,6.442,0,0,0-6.731.356,4.85,4.85,0,0,0-1.162,7l.7.91c-2.379-1.275-3.846-1.723-5.425-1.352-2.126.5-3.6,2.524-3.028,5.484.424,2.188,9.092,8.7,10.727,9.883l.45.326-.667-.085a4.887,4.887,0,0,0-3.458.516,5.887,5.887,0,0,0-1.645,2.1,8.651,8.651,0,0,0-.588,2.924c-.07,2.38,2.683,4.883,4.172,6.574-2.425-.286-4.913-.26-6.253.973-1.72,1.584-1.034,4.844.192,6.787a54.724,54.724,0,0,0,7.259,9.7c2.886,3.013,5.938,6.1,9.582,8.132a51.756,51.756,0,0,0,6.144,2.885,4.939,4.939,0,0,1,1.154.533,8.484,8.484,0,0,1,1.579,2.069c.852,1.236,3.325,4.674,4.817,6.884C159.131,256.243,168.433,248.054,175.415,241.932Z"/><path class="c" d="M130.271,195.441a2.671,2.671,0,0,1,1.458-4.316c2.392-.8,4.492.988,6.446,2.126,4.388,2.556,8.621,5.373,12.763,8.309,4.013,2.843,7.913,6.07,10.427,10.367,2.751,4.7,3.168,10.2,4.574,15.364a26.392,26.392,0,0,0,3.522,7.742,55.062,55.062,0,0,1,3.885,8.111,2.418,2.418,0,0,0,3.284.861,2.46,2.46,0,0,0,.861-3.284,59.508,59.508,0,0,0-3.822-8.014,26.714,26.714,0,0,1-1.866-3.092,24.32,24.32,0,0,1-1.388-4.173c-1.55-6-2.233-12.125-5.818-17.381-3.347-4.907-8.081-8.488-12.919-11.82a143.473,143.473,0,0,0-14.368-9.021,8.91,8.91,0,0,0-10.149,1.142,7.279,7.279,0,0,0-1.035,9.5,2.469,2.469,0,0,0,3.284.861,2.42,2.42,0,0,0,.861-3.284Z"/><path class="c" d="M152.081,210.875c-3.919-3.036-7.952-5.929-12-8.789-2.17-1.533-4.35-3.055-6.568-4.518a29,29,0,0,0-6.367-3.427,6.706,6.706,0,0,0-7.5,10.733c2.821,3.394,6.7,6.122,10.241,8.713,4.594,3.362,9.245,6.679,13.641,10.3a2.469,2.469,0,0,0,3.394,0,2.419,2.419,0,0,0,0-3.394c-6.9-5.684-14.517-10.441-20.95-16.117-.786-.693-1.561-1.4-2.281-2.165-.153-.162-.3-.331-.451-.494-.061-.066-.477-.607-.123-.124-.1-.135-.184-.284-.286-.415-.357-.461-.031.18-.042-.021-.125-2.322,1.021-3.065,2.916-2.442a22.69,22.69,0,0,1,5.08,2.8c1.971,1.291,3.907,2.634,5.834,3.987q3.594,2.521,7.139,5.111,1.524,1.11,3.037,2.235.624.465,1.244.933c.174.131,1.205.922.645.488a2.48,2.48,0,0,0,3.394,0,2.415,2.415,0,0,0,0-3.394Z"/><path class="c" d="M130.963,209.414a6.663,6.663,0,0,0-6.938,3.338,8.345,8.345,0,0,0,.006,8.391,36.342,36.342,0,0,0,5.477,6.293c2.072,2.092,4.248,4.074,6.5,5.969a2.466,2.466,0,0,0,3.395,0,2.421,2.421,0,0,0,0-3.394,92.947,92.947,0,0,1-10.044-9.729,8.263,8.263,0,0,1-1.552-2.233,3.476,3.476,0,0,1,.057-2.026,2.848,2.848,0,0,1,.46-1.095c-.026.038.242-.316.167-.226,0,0,.615-.625.225-.3a3.354,3.354,0,0,1,2.247-.189,2.415,2.415,0,0,0,2.4-2.4,2.455,2.455,0,0,0-2.4-2.4Z"/><path class="c" d="M129.308,221.512c-4.2-.426-9.057.514-9.519,5.53-.362,3.938,2.4,7.433,4.548,10.451a61.1,61.1,0,0,0,8.789,9.742,39.309,39.309,0,0,0,11.763,7.153,4.792,4.792,0,0,1,1.261.536,5.214,5.214,0,0,1,.778,1.152c.407.613.842,1.208,1.267,1.809,1.226,1.731,2.456,3.46,3.641,5.219,1.717,2.548,5.878.148,4.145-2.423-1.664-2.469-3.491-4.835-5.107-7.334a8.4,8.4,0,0,0-1.9-2.289,13.292,13.292,0,0,0-2.939-1.353,39.372,39.372,0,0,1-5.525-2.8,44.311,44.311,0,0,1-8.775-7.853,50.321,50.321,0,0,1-6.361-8.705c-.517-.884-1.245-2.686-.666-3.536.734-1.08,3.472-.617,4.6-.5a2.415,2.415,0,0,0,2.4-2.4,2.454,2.454,0,0,0-2.4-2.4Z"/><path class="c" d="M159.27,172.451c9.274,3.8,18.555,7.581,27.806,11.437,5,2.085,10,4.186,14.97,6.345,4.225,1.836,8.758,3.516,12.583,6.115a26.808,26.808,0,0,1,7.247,6.841,41.492,41.492,0,0,1,4.555,9.833c2.384,7.046,4.236,14.25,6,21.471,3.064,12.516,6.247,24.992,7.389,37.867a116.134,116.134,0,0,1-.191,23.395c-.727,6.4-2.17,13.815-6.448,18.888-3.869,4.588-9.949,6.877-15.866,6.872-5.969,0-11.871-2.828-16.926-5.772a72.864,72.864,0,0,1-12.044-9.314c-4.072-3.684-8.012-7.513-11.875-11.415-7.036-7.105-13.945-14.419-20.252-22.185q-.4-.5-.8-1l-.376-.477c-.109-.139-.448-.58-.156-.2-.429-.561-.852-1.125-1.26-1.7-.319-.45-.632-.906-.919-1.377-.108-.176-.214-.354-.311-.536-.108-.2-.2-.666-.127-.227.083.5.024.049,0-.082-.019-.113.059.8.069.421,0-.03.023.689-.032.286a.725.725,0,0,1,.085-.267c.155-.317-.312.478-.072.179a7.474,7.474,0,0,0,.412-.728c.164-.26.341-.511.519-.762.049-.068.365-.489.175-.24-.175.229.253-.314.334-.414.568-.7,1.165-1.367,1.772-2.029,6.79-7.392,14.575-13.912,22.111-20.517q2.3-2.018,4.6-4.042h-3.394c9.634,8.748,19.448,17.391,28.507,26.744,2.153,2.223,5.545-1.173,3.394-3.394-9.059-9.353-18.873-18-28.507-26.744a2.463,2.463,0,0,0-3.394,0c-7.707,6.839-15.6,13.489-22.956,20.711-2.654,2.606-5.777,5.414-7.573,8.725a4.586,4.586,0,0,0-.581,3.65,11.107,11.107,0,0,0,1.617,2.883c5.23,7.484,11.731,14.218,18,20.816a254.467,254.467,0,0,0,23.934,22.771,55.984,55.984,0,0,0,17.145,9.427,27.142,27.142,0,0,0,19.042-.344,23.863,23.863,0,0,0,8.389-5.535,28.151,28.151,0,0,0,5.484-9.225c2.8-7.1,3.486-15.1,3.723-22.667.467-14.976-2.167-29.829-5.685-44.328-1.546-6.375-3.077-12.765-4.792-19.1-2-7.4-4-15.267-8.02-21.869-3.46-5.68-9.22-9.742-15.17-12.472-4.479-2.056-9.014-3.994-13.551-5.919-10.573-4.486-21.2-8.843-31.831-13.189q-2.74-1.12-5.481-2.242a2.415,2.415,0,0,0-2.953,1.676,2.46,2.46,0,0,0,1.677,2.952Z"/><path class="c" d="M114.139,128.94c2.99,2.93,7.73,3.78,11.743,3.779s8.754-.841,11.749-3.769c2.212-2.163-1.183-5.556-3.394-3.394-.1.1-.6.52-.3.281.284-.224-.362.241-.51.331-.26.16-.528.307-.8.444-.183.092-.37.18-.558.262.326-.142,0,0-.153.052a17.479,17.479,0,0,1-6.035.993,17,17,0,0,1-5.927-.96c-.031-.011-.721-.3-.261-.092q-.237-.105-.468-.219c-.3-.149-.6-.311-.89-.489-.219-.136-.422-.306-.643-.436.609.357.015-.006-.16-.177-2.208-2.164-5.605,1.227-3.394,3.394Z"/><path class="c" d="M125.31,106.838a48.251,48.251,0,0,1,1.128,5.175l-.086-.638a3.055,3.055,0,0,1,.019.715l.086-.638a1.692,1.692,0,0,1-.079.321l.242-.574a1.258,1.258,0,0,1-.113.207l.375-.486a1.112,1.112,0,0,1-.169.167l.486-.375a3.481,3.481,0,0,1-.41.216l.573-.242a2.961,2.961,0,0,1-.691.2l.638-.085a2.754,2.754,0,0,1-.648,0l.638.086c-.245-.034-.484-.094-.729-.127a2.649,2.649,0,0,0-1.849.242,2.4,2.4,0,0,0-.861,3.284,2.3,2.3,0,0,0,1.434,1.1c.534.072,1.052.208,1.595.232a5.044,5.044,0,0,0,2.323-.547,3.3,3.3,0,0,0,1.844-2.179,5.588,5.588,0,0,0-.024-2.377c-.281-1.667-.666-3.319-1.094-4.955a2.4,2.4,0,0,0-4.628,1.276Z"/><path class="c" d="M98.022,92.377c-.847,2.745-.3,9.06,4.9,9.6,6.874-.037,7.244-7.672,4.932-11.263C105.962,87.774,100.392,86.548,98.022,92.377Z"/><path class="c" d="M152.841,92.405c.843,2.746.29,9.061-4.911,9.595-6.874-.045-7.236-7.68-4.921-11.269C144.905,87.793,150.477,86.574,152.841,92.405Z"/></svg>